#!OML:ASF X:\für Bonn\!DataBase\2005_08_11_Bastian_Final\c3d\Bastian.ASF
:FULLY-SPECIFIED
:DEGREES
140
root -3.64128 17.4241 0.466241 897.529 44.426 -173.246
lowerback 19.3397 -3.94442 0.84612
upperback 16.2145 -2.51674 3.79988
thorax 7.1037 -0.354841 4.09643
lowerneck -19.4441 -11.2346 -19.7347
upperneck -4.15006 -11.4203 30.9063
head 5.59137 -3.82756 12.4619
rclavicle 2.82274e-014 4.25399e-014
rhumerus -27.0864 4.2456 -80.7158
rradius 33.8391
rwrist 0.445894
rhand -12.8281 6.14887
rfingers 7.12502
rthumb 13.2589 -23.4094
lclavicle 2.82274e-014 4.25399e-014
lhumerus -2.63308 -30.7143 91.1116
lradius 58.3875
lwrist 17.2192
lhand -15.4737 -13.4873
lfingers 7.12502
lthumb 10.7078 16.2198
rfemur -33.4429 0.75929 20.9501
rtibia 53.5708
rfoot 7.56816 2.15479
rtoes -24.8025
lfemur 4.70664 1.11242 -17.3282
ltibia 28.8882
lfoot -16.5298 -10.4153
ltoes 9.24548
141
root -3.59299 17.4232 0.41256 897.512 44.5981 -173.258
lowerback 19.2634 -3.97516 0.884359
upperback 16.2425 -2.55662 3.83009
thorax 7.17853 -0.37395 4.11185
lowerneck -19.5305 -11.1959 -19.6179
upperneck -4.11376 -11.377 30.8275
head 5.58753 -3.80237 12.4152
rclavicle 5.60573e-014 -7.27552e-014
rhumerus -27.2566 4.19423 -80.7016
rradius 33.7315
rwrist 0.470411
rhand -12.8404 6.12213
rfingers 7.12502
rthumb 13.2471 -23.4369
lclavicle 5.60573e-014 -7.27552e-014
lhumerus -2.55365 -30.7928 91.1427
lradius 58.2531
lwrist 16.9891
lhand -15.4543 -13.5951
lfingers 7.12502
lthumb 10.7265 16.1111
rfemur -33.3249 0.994929 20.7797
rtibia 52.0784
rfoot 8.14571 2.07456
rtoes -25.5848
lfemur 5.23784 1.14689 -17.367
ltibia 28.4663
lfoot -16.6517 -10.3259
ltoes 9.12285
142
root -3.54397 17.4204 0.359286 897.517 44.7868 -173.238
lowerback 19.2068 -3.99856 0.894711
upperback 16.2669 -2.5898 3.88742
thorax 7.24264 -0.393946 4.17223
lowerneck -19.6065 -11.1473 -19.4996
upperneck -4.10301 -11.3136 30.7218
head 5.56593 -3.77044 12.3607
rclavicle 1.19271e-014 8.34896e-015
rhumerus -27.4283 4.16245 -80.6472
rradius 33.6181
rwrist 0.588635
rhand -12.8479 6.11878
rfingers 7.12502
rthumb 13.2398 -23.4407
lclavicle 1.19271e-014 8.34896e-015
lhumerus -2.51852 -30.8462 91.1807
lradius 58.1476
lwrist 16.77
lhand -15.4401 -13.656
lfingers 7.12502
lthumb 10.7402 16.0494
rfemur -33.1844 1.24905 20.6381
rtibia 50.6122
rfoot 8.66135 1.98146
rtoes -26.1374
lfemur 5.75725 1.22608 -17.3642
ltibia 28.065
lfoot -16.7765 -10.2773
ltoes 9.04125
143
root -3.4941 17.4166 0.306315 897.5 44.9404 -173.259
lowerback 19.1516 -4.01688 0.908473
upperback 16.2778 -2.61784 3.93087
thorax 7.28828 -0.410873 4.21436
lowerneck -19.6402 -11.1097 -19.4072
upperneck -4.11075 -11.2667 30.6632
head 5.54406 -3.74818 12.3273
rclavicle -5.56597e-015 -2.8625e-014
rhumerus -27.6641 4.10039 -80.6151
rradius 33.5563
rwrist 0.649219
rhand -12.8705 6.16516
rfingers 7.12502
rthumb 13.218 -23.3958
lclavicle -5.56597e-015 -2.8625e-014
lhumerus -2.55398 -30.9349 91.2436
lradius 58.0438
lwrist 16.5535
lhand -15.4709 -13.7787
lfingers 7.12502
lthumb 10.7105 15.9283
rfemur -33.0353 1.4706 20.4633
rtibia 49.196
rfoot 9.08228 1.82603
rtoes -26.6885
lfemur 6.25874 1.33075 -17.3782
ltibia 27.6837
lfoot -16.9061 -10.2527
ltoes 8.842
144
root -3.44247 17.4125 0.253383 897.517 45.0458 -173.234
lowerback 19.0934 -4.06231 0.952316
upperback 16.287 -2.67707 3.97082
thorax 7.33375 -0.440177 4.23953
lowerneck -19.7047 -11.0555 -19.267
upperneck -4.0813 -11.2078 30.5703
head 5.52785 -3.71815 12.2735
rclavicle 1.23246e-014 3.1408e-014
rhumerus -27.8588 3.98888 -80.5896
rradius 33.441
rwrist 0.828111
rhand -12.8439 6.2171
rfingers 7.12502
rthumb 13.2437 -23.3422
lclavicle 1.23246e-014 3.1408e-014
lhumerus -2.65698 -30.9445 91.3002
lradius 58.0078
lwrist 16.3302
lhand -15.3814 -13.7827
lfingers 7.12502
lthumb 10.7969 15.9198
rfemur -32.8638 1.64155 20.3294
rtibia 47.814
rfoot 9.43943 1.66271
rtoes -26.9464
lfemur 6.74208 1.42765 -17.3413
ltibia 27.3151
lfoot -17.0151 -10.2882
ltoes 8.70271
145
root -3.3888 17.4069 0.200508 897.531 45.1449 -173.227
lowerback 19.0178 -4.09792 0.973435
upperback 16.3071 -2.72531 4.0269
thorax 7.40315 -0.466449 4.29366
lowerneck -19.7627 -11.0242 -19.1852
upperneck -4.10889 -11.1571 30.4943
head 5.50186 -3.693 12.2355
rclavicle -7.4743e-014 1.74931e-014
rhumerus -28.0469 3.83892 -80.5084
rradius 33.3767
rwrist 0.9568
rhand -12.7168 6.26785
rfingers 7.12502
rthumb 13.3661 -23.2834
lclavicle -7.4743e-014 1.74931e-014
lhumerus -2.7495 -30.915 91.4068
lradius 57.9415
lwrist 16.0919
lhand -15.3039 -13.8568
lfingers 7.12502
lthumb 10.8716 15.8417
rfemur -32.6935 1.80244 20.1885
rtibia 46.4961
rfoot 9.74056 1.45637
rtoes -26.9226
lfemur 7.21553 1.50484 -17.3133
ltibia 26.965
lfoot -17.1125 -10.3331
ltoes 8.75126
146
root -3.33298 17.4016 0.14745 897.532 45.2149 -173.261
lowerback 18.9284 -4.13497 0.982349
upperback 16.3134 -2.78132 4.0639
thorax 7.46334 -0.498149 4.33358
lowerneck -19.7913 -11.0005 -19.1355
upperneck -4.14004 -11.1179 30.4729
head 5.4819 -3.6734 12.2238
rclavicle -5.48646e-014 3.06128e-014
rhumerus -28.2743 3.66312 -80.4511
rradius 33.3103
rwrist 1.07005
rhand -12.5803 6.39512
rfingers 7.12502
rthumb 13.4977 -23.1475
lclavicle -5.48646e-014 3.06128e-014
lhumerus -2.87498 -30.8844 91.5083
lradius 57.8897
lwrist 15.9551
lhand -15.2049 -13.9028
lfingers 7.12502
lthumb 10.9671 15.7908
rfemur -32.5249 1.94157 20.0286
rtibia 45.2317
rfoot 9.96276 1.27706
rtoes -26.7314
lfemur 7.66853 1.56265 -17.3167
ltibia 26.6276
lfoot -17.2543 -10.3634
ltoes 8.42935
